<?xml version="1.0" encoding="utf-8"?>
<!-- Generator: Adobe Illustrator 25.2.3, SVG Export Plug-In . SVG Version: 6.00 Build 0)  -->
<svg version="1.1" id="Layer_1" xmlns="http://www.w3.org/2000/svg" xmlns:xlink="http://www.w3.org/1999/xlink" x="0px" y="0px"
	 width="612px" height="792px" viewBox="0 0 612 792" style="enable-background:new 0 0 612 792;" xml:space="preserve">
<style type="text/css">
	.st0{fill:#FFFFFF;}
</style>
<g>
	<g  fill="#ff8cb4"  
      id="tammy" 
      azimuth="200">
		<path d="M148.727,255.535c-14.339,25.242-22.107,54.181-22.334,83.211c-0.096,12.277,2.87,24.08,6.945,35.582
			c4.416,12.464,5.412,24.037,6.368,37.506c2.252,31.743,3.421,63.562,3.503,95.385c0.104,40.331,8.677,78.976,13.415,118.922
			c2.809,23.68,4.896,47.471,5.187,71.328c0.251,20.609-2.884,44.808-20.79,55.013c-5.447,3.104-11.683,4.475-17.811,5.804
			c-24.802,5.382-54.243,11.531-76.058-4.911c-12.173-9.175-7.607-26.435-8.409-39.817c-1.188-19.822-2.128-39.661-2.864-59.505
			c-1.471-39.689-2.067-79.411-1.799-119.127c0.53-78.607,4.445-157.189,11.662-235.465c4.451-48.272,11.179-99.068,40.702-137.518
			c20.155-26.25,49.186-44.21,78.893-58.796c60-29.459,128.651-47.607,193.884-33.028c33.111,7.4,63.866,22.881,93.027,40.223
			c44.796,26.64,87.86,59.211,114.637,103.925c26.711,44.606,35.127,97.87,36.69,149.838c3.249,107.995-1.342,216.577-0.822,324.67
			c0.068,14.148,0.136,28.312-0.9,42.422c-0.553,7.532-1.551,15.403-5.897,21.58c-4.346,6.177-13.072,9.909-19.718,6.322
			c-14.52,4.389-29.193,8.272-43.984,11.64c-16.101,3.666-34.635,6.233-47.716-3.845c-15.243-11.744-15.357-34.253-14.3-53.467
			c6.841-124.45,3.758-249.629-8.236-373.676c-1.851-19.131-3.913-38.289-8.052-57.058c-4.892-22.182-13.014-44.29-28.143-61.233
			c-15.135-16.949-36.026-27.431-56.388-37.516c-11.457-5.675-23.12-11.418-35.725-13.561c-7.608-1.293-15.373-1.238-23.091-1.18
			c-26.307,0.2-53.573,0.607-77.372,11.82c-17.39,8.194-33.835,21.973-46.62,36.255c-6.231,6.961-11.663,14.803-17.773,21.912
			c-3.127,3.637-20.123,17.208-20.322,21.04c0.083-1.587,0.165-3.174,0.248-4.762C148.752,255.491,148.74,255.513,148.727,255.535z
			 M511.586,733.08c4.224-0.953,7.661-1.988,11.175-2.475c13.956-1.933,27.458-5.695,40.92-9.693
			c2.848-0.846,4.551-2.018,3.808-5.26c-0.535-2.333-1.047-4.672-1.485-7.025c-0.459-2.466-1.049-4.94-1.172-7.431
			c-0.309-6.256-0.337-12.524-0.568-18.785c-0.662-17.985-1.681-35.965-1.955-53.955c-0.208-13.695,0.64-27.403,0.779-41.107
			c0.138-13.588-0.252-27.184,0.011-40.768c0.273-14.047,1.46-28.083,1.506-42.127c0.055-16.603-0.829-33.207-1.037-49.814
			c-0.198-15.787-0.193-31.579-0.003-47.366c0.128-10.678,0.586-21.358,1.158-32.023c0.863-16.1-2.192-31.939-3.228-47.904
			c-0.814-12.545-4.157-24.921-6.281-37.389c-2.313-13.575-7.814-25.984-14.203-37.98c-3.714-6.973-6.341-14.149-7.626-21.9
			c-0.212-1.279-0.829-2.704-1.713-3.625c-5.869-6.119-11.732-12.255-17.845-18.126c-9.036-8.679-18.705-16.692-26.83-26.317
			c-16.005-18.961-35.987-32.355-58.88-41.563c-13.813-5.556-27.258-11.789-39.691-20.09c-8.412-5.617-17.868-8.831-27.664-11.007
			c-7.242-1.609-14.744-2.299-21.787-4.499c-13.022-4.067-26.14-3.813-39.323-2.11c-16.454,2.125-32.838,4.781-49.269,7.09
			c-14.259,2.003-27.884,6.068-40.82,12.351c-11.484,5.577-22.912,11.273-34.297,17.051c-20.626,10.467-38.975,23.808-53.242,42.325
			c-9.397,12.197-17.745,25.047-23.343,39.417c-4.989,12.808-7.543,26.294-9.528,39.881c-1.477,10.11-3.526,20.15-4.651,30.295
			c-1.829,16.497-3.197,33.048-4.592,49.591c-0.937,11.104-2.025,22.222-2.263,33.351c-0.378,17.636,0.071,35.288-0.144,52.93
			c-0.308,25.32-0.727,50.642-1.434,75.953c-0.395,14.137-1.64,28.249-2.197,42.385c-0.864,21.925-1.465,43.86-2.187,65.79
			c-0.121,3.69-0.501,7.371,1.774,10.717c0.678,0.997,0.84,2.406,1.039,3.659c1.399,8.804,1.229,17.586-0.736,26.286
			c-1.532,6.783-3.246,13.525-4.889,20.283c-2.082,8.563-2.662,17.188-1.117,25.907c0.83,4.681,1.694,9.357,2.482,14.045
			c0.906,5.388,2.472,10.489,5.223,15.294c1.014,1.771,1.996,4.445-1.233,5.865c-0.529,0.233-0.867,1.268-0.991,1.985
			c-0.369,2.141-0.588,4.308-0.928,6.942c1.228,0.134,2.558,0.497,3.845,0.383c7.101-0.629,14.192-1.367,21.285-2.084
			c4.023-0.407,7.256-3.091,8.243-6.482c6.144-2.214,12.843-1.675,18.944-5.49c-1.949-2.421-3.649-4.3-5.055-6.378
			c-0.697-1.03-1.582-2.9-1.139-3.578c3.004-4.595,2.763-9.76,2.966-14.813c0.489-12.184,0.53-24.362-0.743-36.524
			c-0.761-7.273-0.983-14.604-1.778-21.873c-1.11-10.157-2.6-20.272-3.797-30.421c-2.243-19.023-4.539-38.042-6.539-57.092
			c-1.915-18.24-4.162-36.486-4.988-54.787c-0.668-14.798,0.677-29.681,0.919-44.529c0.376-23.108,0.543-46.219,0.86-69.329
			c0.17-12.42,0.263-24.846,0.778-37.254c0.366-8.803,1.795-17.569,2.007-26.37c0.317-13.155,1.485-26.18,3.55-39.17
			c1.997-12.56,4.946-24.824,10.084-36.481c7-15.883,15.514-30.916,25.69-44.989c9.276-12.827,18.917-25.403,31.497-35.189
			c9.154-7.12,18.76-13.677,28.352-20.209c15.701-10.691,33.172-16.595,52.084-17.821c22.243-1.443,44.54-2.543,66.786-0.576
			c9.299,0.822,18.787,2.19,27.622,5.057c25.652,8.326,49.198,21.063,71.275,36.53c1.804,1.264,3.63,2.566,5.611,3.499
			c13.717,6.46,24.259,16.573,33.067,28.662c3.071,4.215,6.56,8.31,8.687,12.992c5.033,11.081,9.835,22.316,13.857,33.795
			c4.706,13.429,9.654,26.884,10.362,41.371c0.141,2.878,0.847,5.728,1.285,8.592c1.137,7.45,2.675,14.866,3.311,22.359
			c0.981,11.56,1.666,23.166,1.886,34.764c0.266,14.044,1.042,28.026,2.738,41.965c0.631,5.181,1.17,10.376,1.626,15.575
			c0.381,4.343,0.44,8.716,0.894,13.049c0.517,4.944,1.561,9.84,1.939,14.79c0.889,11.657,1.309,23.353,2.309,34.999
			c1.045,12.172,1.434,24.311,0.688,36.519c-0.523,8.568-0.787,17.176-0.617,25.756c0.408,20.549,1.392,41.088,1.649,61.637
			c0.161,12.879-0.666,25.769-0.89,38.656c-0.284,16.376-0.301,32.757-0.634,49.133c-0.248,12.185-0.82,24.363-1.231,36.544
			C511.54,728.924,511.586,730.528,511.586,733.08z M62.303,715.521c-0.528-4.013-1.05-7.982-1.573-11.951
			c-0.376-0.001-0.752-0.001-1.127-0.002c-0.946,2.477-1.111,5.059-1.356,7.771C57.96,714.504,58.973,715.631,62.303,715.521z
			 M70.226,637.978c-0.12,0-0.24-0.001-0.359-0.001c0-4.416,0-8.831,0-13.247c-0.302,0.016-0.605,0.031-0.907,0.047
			C69.381,629.178,69.804,633.578,70.226,637.978z M65.204,739.478c0.136-2.847-1.097-2.352-2.335-1.789
			c-0.135,0.061-0.191,0.296-0.348,0.559C63.33,738.619,64.101,738.973,65.204,739.478z M108.45,734.275
			c-0.005,0.19-0.011,0.381-0.016,0.571c0.683-0.077,1.366-0.153,2.05-0.23c-0.021-0.143-0.041-0.286-0.062-0.429
			C109.764,734.217,109.107,734.246,108.45,734.275z M69.691,617.494c-0.091-0.186-0.182-0.373-0.274-0.559
			c-0.113,0.167-0.251,0.323-0.327,0.505c-0.027,0.064,0.126,0.282,0.146,0.276C69.395,617.663,69.541,617.574,69.691,617.494z
			 M68.155,741.324c-0.091,0.054-0.267,0.128-0.26,0.159c0.045,0.195,0.132,0.38,0.204,0.568c0.084-0.064,0.247-0.141,0.239-0.19
			C68.308,741.677,68.222,741.502,68.155,741.324z"/>
		<path class="st0" d="M511.802,732.723c-3.129-37.133,1.667-76.3,1.86-113.625c0.206-39.766-0.168-79.534-1.017-119.292
			c-0.994-46.549-6.628-92.827-9.355-139.33c-2.174-37.085-4.599-73.445-17.01-108.86c-11.374-32.456-27.588-58.678-56.133-78.498
			c-26.863-18.652-58.376-30.986-90.047-38.629c-47.297-11.414-100.103-8.555-140.743,20.52
			c-35.046,25.073-64.278,56.614-78.053,98.16c-14.462,43.619-15.349,90.463-15.973,135.969c-0.317,23.109-0.484,46.22-0.86,69.329
			c-0.242,14.848-1.587,29.731-0.919,44.529c0.826,18.301,3.073,36.547,4.988,54.787c5.15,49.049,13.063,97.156,11.431,146.696
			c-0.264,8.008-0.605,16.465,3.181,23.527c-12.827,7.188-26.791,12.341-41.212,15.209c-3.245,0.645-7.775,0.37-8.393-2.881
			c-0.223-1.175,0.216-2.36,0.539-3.512c2.605-9.309-2.311-18.825-4.745-28.18c-4.844-18.62,0.228-38.155,2.699-57.235
			c2.497-19.283,2.304-38.798,2.27-58.242c-0.147-82.006-0.848-164.131,5.053-245.982c4.7-65.192,9.062-137.39,61.292-183.911
			c0.999-0.89,2.011-1.769,3.033-2.633c51.898-43.913,135.587-68.518,202.732-54.311c34.493,7.298,65.888,24.181,95.855,42.178
			c30.376,18.242,52.9,41.6,77.915,66.513c3.197,3.184,6.412,6.39,8.985,10.096c2.729,3.931,4.678,8.34,6.609,12.719
			c36.268,82.227,27.703,172.804,27.894,260.753c0.158,72.756-2.921,145.486,3.031,218.118c0.071,0.866,0.134,1.779-0.237,2.565
			c-0.633,1.339-2.253,1.829-3.692,2.178C559.38,722.271,511.802,732.29,511.802,732.723z M77.252,731.28
			c0.322,0.01,0.643,0.02,0.965,0.03c-0.077-0.695-0.153-1.39-0.23-2.084c-0.245,0.012-0.49,0.024-0.735,0.036
			C77.252,729.935,77.252,730.608,77.252,731.28z"/>
		<!-- <path class="st0" d="M62.303,715.521c-3.329,0.11-4.342-1.017-4.056-4.183c0.245-2.712,0.41-5.294,1.356-7.771
			c0.376,0.001,0.752,0.001,1.127,0.002C61.252,707.539,61.775,711.508,62.303,715.521z"/>
		<path class="st0" d="M70.226,637.978c-0.422-4.4-0.845-8.801-1.267-13.201c0.302-0.016,0.605-0.031,0.907-0.047
			c0,4.416,0,8.831,0,13.247C69.986,637.977,70.106,637.978,70.226,637.978z"/>
		<path class="st0" d="M65.204,739.478c-1.103-0.506-1.873-0.859-2.684-1.231c0.158-0.263,0.214-0.498,0.348-0.559
			C64.107,737.126,65.34,736.631,65.204,739.478z"/>
		<path class="st0" d="M108.45,734.275c0.657-0.029,1.315-0.058,1.972-0.088c0.021,0.143,0.041,0.286,0.062,0.429
			c-0.683,0.076-1.366,0.153-2.05,0.23C108.439,734.656,108.444,734.466,108.45,734.275z"/>
		<path class="st0" d="M69.691,617.495c-0.15,0.079-0.296,0.169-0.454,0.221c-0.02,0.007-0.173-0.211-0.146-0.276
			c0.076-0.182,0.213-0.339,0.327-0.505C69.508,617.121,69.6,617.308,69.691,617.495z"/>
		<path class="st0" d="M68.156,741.324c0.066,0.178,0.152,0.353,0.183,0.537c0.008,0.049-0.155,0.126-0.239,0.19
			c-0.073-0.188-0.159-0.373-0.204-0.568C67.887,741.452,68.064,741.378,68.156,741.324z"/>
		<path class="st0" d="M148.387,255.345l-0.082,0.18c0,0-0.064-0.15-0.063-0.157C148.243,255.362,148.387,255.345,148.387,255.345z"
			/>
		<path d="M77.252,731.28c0-0.673,0-1.345,0-2.018c0.245-0.012,0.49-0.024,0.735-0.036c0.077,0.695,0.153,1.389,0.23,2.084
			C77.895,731.3,77.573,731.29,77.252,731.28z"/> -->
	</g>
</g>
</svg>
